<svg style="position: absolute; width: 0; height: 0;" width="0" height="0" version="1.1" xmlns="http://www.w3.org/2000/svg" xmlns:xlink="http://www.w3.org/1999/xlink">
  <defs>
    <symbol id="hamburger" viewBox="0 0 46 34">
      <path d="M42.58 5.32H2.66a2.66 2.66 0 0 1 0-5.32h39.92a2.66 2.66 0 0 1 0 5.32zm0 14H2.66a2.66 2.66 0 0 1 0-5.32h39.92a2.66 2.66 0 0 1 0 5.32zm0 14H2.66a2.66 2.66 0 0 1 0-5.32h39.92a2.66 2.66 0 0 1 0 5.32z"/>
    </symbol>
    <symbol id="comom-logo" viewBox="0 0 1053 171">
      <g fill="none" fill-rule="evenodd">
        <path fill="currentColor" d="M382.345 134.925c-10.446 0-18.914 8.073-18.914 18.032s8.468 18.032 18.914 18.032c10.446 0 18.915-8.073 18.915-18.032s-8.469-18.032-18.915-18.032"/>
        <path fill="currentColor" d="M725.304 133.164c-26.206 0-47.528-21.321-47.528-47.528 0-26.207 21.322-47.528 47.528-47.528 26.207 0 47.528 21.321 47.528 47.528 0 26.207-21.321 47.528-47.528 47.528zm308.466-.035c-8.63 0-15.65-6.131-15.65-13.668 0-.299-.03-.59-.04-.886V51.947c0-.512-.04-1.014-.08-1.516-.74-27.773-24.416-50.15-53.431-50.15-13.166 0-25.228 4.616-34.555 12.244C920.686 4.897 908.625.281 895.458.281c-13.167 0-25.229 4.616-34.556 12.244C851.575 4.897 839.513.281 826.346.281c-18.126 0-34.164 8.739-43.838 22.064C767.36 8.641 747.291.281 725.304.281c-46.515 0-84.433 37.408-85.313 83.717h-.002v.071c-.009.524-.039 1.042-.039 1.567 0 .526.03 1.044.039 1.568v31.781c-.004.16-.024.316-.024.476 0 7.537-7.016 13.668-15.642 13.668-8.625 0-15.642-6.131-15.642-13.668 0-.307-.031-.606-.046-.91V51.947c0-.495-.036-.981-.074-1.466-.718-27.796-24.402-50.2-53.435-50.2-13.166 0-25.228 4.616-34.556 12.244C511.243 4.897 499.181.281 486.014.281c-13.166 0-25.228 4.616-34.555 12.244C442.131 4.897 430.07.281 416.903.281c-15.918 0-30.895 6.755-41.088 18.534-4.078 4.711-7.219 10.025-9.334 15.791a49.694 49.694 0 0 0-3.047 17.17c0 10.446 8.467 18.913 18.913 18.913s18.914-8.467 18.914-18.913c0-1.422.246-2.814.734-4.142a13.089 13.089 0 0 1 2.423-4.065c3.003-3.471 7.554-5.461 12.485-5.461 8.625 0 15.642 6.131 15.642 13.668l.002.026-.002.026V152.07c0 10.446 8.468 18.914 18.914 18.914 10.446 0 18.913-8.468 18.913-18.914V51.828l-.001-.026.001-.026c0-7.537 7.017-13.668 15.642-13.668s15.642 6.131 15.642 13.668v33.86c0 10.446 8.468 18.914 18.914 18.914 10.445 0 18.913-8.468 18.913-18.914v-33.86c0-7.537 7.018-13.668 15.643-13.668 8.626 0 15.642 6.131 15.642 13.668 0 .266.029.526.04.79v67.291c0 .68.04 1.35.11 2.011 1.31 27.281 24.76 49.088 53.405 49.088 18.102 0 34.12-8.716 43.799-22.011 15.145 13.693 35.205 22.046 57.182 22.046 46.916 0 85.103-38.051 85.344-84.911h.04V52.087c.002-.105.016-.206.016-.311 0-7.537 7.017-13.668 15.642-13.668s15.642 6.131 15.642 13.668l.001.026-.001.026V152.07c0 10.446 8.468 18.914 18.913 18.914 10.446 0 18.914-8.468 18.914-18.914V51.828l-.002-.026.002-.026c0-7.537 7.018-13.668 15.643-13.668S911.1 44.239 911.1 51.776c0 .703.045 1.396.12 2.079a19.06 19.06 0 0 0-.12 2.08v29.701c0 10.446 8.468 18.914 18.914 18.914 10.445 0 18.913-8.468 18.913-18.914V55.935c0-.703-.045-1.396-.12-2.08.075-.683.12-1.376.12-2.079 0-7.537 7.017-13.668 15.642-13.668s15.642 6.131 15.642 13.668c0 .275.03.542.041.814v67.267c0 .677.039 1.343.108 2.001 1.305 27.286 24.76 49.098 53.41 49.098 10.44 0 18.91-8.468 18.91-18.913 0-10.446-8.47-18.914-18.91-18.914zm-780.104.035c-26.206 0-47.527-21.321-47.527-47.528 0-26.207 21.321-47.528 47.527-47.528 26.208 0 47.529 21.321 47.529 47.528 0 26.207-21.321 47.528-47.529 47.528zm0-132.883c-44.002 0-80.326 33.471-84.868 76.289-.117.564-.234 1.138-.351 1.711-.178.877-.346 1.723-.483 2.35-12.285 34.133-46.51 52.542-72.688 52.542-40.106 0-55.944-25.097-57.32-46.588-.916-14.313 3.124-27.042 11.378-35.841 7.115-7.584 16.915-11.593 28.343-11.593 25.983 0 31.692 17.107 32.94 24.463 1.748 10.297 11.507 17.227 21.813 15.481 10.297-1.748 17.229-11.514 15.481-21.812-4.382-25.815-25.405-55.959-70.234-55.959-21.829 0-41.692 8.361-55.932 23.541C6.264 41.369-1.386 64.147.207 89.002 2.735 128.494 33.564 171 95.276 171c28.731 0 62.467-13.689 86.029-40.174 15.103 24.098 41.884 40.165 72.361 40.165 47.066 0 85.356-38.29 85.356-85.355 0-47.065-38.29-85.355-85.356-85.355z"/>
      </g>
    </symbol>
    <symbol id="comom-logo-2" viewBox="0 0 1060 199">
      <defs>
        <polygon id="a" points=".06 .281 1052.68 .281 1052.68 171 .06 171"/>
      </defs>
      <g fill="none" fill-rule="evenodd">
        <path fill="currentColor" fill-rule="nonzero" d="M385.345 151.925c-10.446 0-18.914 8.073-18.914 18.032s8.468 18.032 18.914 18.032c10.446 0 18.915-8.073 18.915-18.032s-8.469-18.032-18.915-18.032"/>
        <g transform="translate(3 17)">
          <mask id="b" fill="currentColor">
            <use xlink:href="#a"/>
          </mask>
          <path fill="currentColor" fill-rule="nonzero" d="M725.304 133.164c-26.206 0-47.528-21.321-47.528-47.528 0-26.207 21.322-47.528 47.528-47.528 26.207 0 47.528 21.321 47.528 47.528 0 26.207-21.321 47.528-47.528 47.528zm308.466-.035c-8.63 0-15.65-6.131-15.65-13.668 0-.299-.03-.59-.04-.886V51.947c0-.512-.04-1.014-.08-1.516-.74-27.773-24.416-50.15-53.431-50.15-13.166 0-25.228 4.616-34.555 12.244C920.686 4.897 908.625.281 895.458.281c-13.167 0-25.229 4.616-34.556 12.244C851.575 4.897 839.513.281 826.346.281c-18.126 0-34.164 8.739-43.838 22.064C767.36 8.641 747.291.281 725.304.281c-46.515 0-84.433 37.408-85.313 83.717h-.002v.071c-.009.524-.039 1.042-.039 1.567 0 .526.03 1.044.039 1.568v31.781c-.004.16-.024.316-.024.476 0 7.537-7.016 13.668-15.642 13.668-8.625 0-15.642-6.131-15.642-13.668 0-.307-.031-.606-.046-.91V51.947c0-.495-.036-.981-.074-1.466-.718-27.796-24.402-50.2-53.435-50.2-13.166 0-25.228 4.616-34.556 12.244C511.243 4.897 499.181.281 486.014.281c-13.166 0-25.228 4.616-34.555 12.244C442.131 4.897 430.07.281 416.903.281c-15.918 0-30.895 6.755-41.088 18.534-4.078 4.711-7.219 10.025-9.334 15.791a49.694 49.694 0 0 0-3.047 17.17c0 10.446 8.467 18.913 18.913 18.913s18.914-8.467 18.914-18.913c0-1.422.246-2.814.734-4.142a13.089 13.089 0 0 1 2.423-4.065c3.003-3.471 7.554-5.461 12.485-5.461 8.625 0 15.642 6.131 15.642 13.668l.002.026-.002.026V152.07c0 10.446 8.468 18.914 18.914 18.914 10.446 0 18.913-8.468 18.913-18.914V51.828l-.001-.026.001-.026c0-7.537 7.017-13.668 15.642-13.668s15.642 6.131 15.642 13.668v33.86c0 10.446 8.468 18.914 18.914 18.914 10.445 0 18.913-8.468 18.913-18.914v-33.86c0-7.537 7.018-13.668 15.643-13.668 8.626 0 15.642 6.131 15.642 13.668 0 .266.029.526.04.79v67.291c0 .68.04 1.35.11 2.011 1.31 27.281 24.76 49.088 53.405 49.088 18.102 0 34.12-8.716 43.799-22.011 15.145 13.693 35.205 22.046 57.182 22.046 46.916 0 85.103-38.051 85.344-84.911h.04V52.087c.002-.105.016-.206.016-.311 0-7.537 7.017-13.668 15.642-13.668s15.642 6.131 15.642 13.668l.001.026-.001.026V152.07c0 10.446 8.468 18.914 18.913 18.914 10.446 0 18.914-8.468 18.914-18.914V51.828l-.002-.026.002-.026c0-7.537 7.018-13.668 15.643-13.668S911.1 44.239 911.1 51.776c0 .703.045 1.396.12 2.079a19.06 19.06 0 0 0-.12 2.08v29.701c0 10.446 8.468 18.914 18.914 18.914 10.445 0 18.913-8.468 18.913-18.914V55.935c0-.703-.045-1.396-.12-2.08.075-.683.12-1.376.12-2.079 0-7.537 7.017-13.668 15.642-13.668s15.642 6.131 15.642 13.668c0 .275.03.542.041.814v67.267c0 .677.039 1.343.108 2.001 1.305 27.286 24.76 49.098 53.41 49.098 10.44 0 18.91-8.468 18.91-18.913 0-10.446-8.47-18.914-18.91-18.914zm-780.104.035c-26.206 0-47.527-21.321-47.527-47.528 0-26.207 21.321-47.528 47.527-47.528 26.208 0 47.529 21.321 47.529 47.528 0 26.207-21.321 47.528-47.529 47.528zm0-132.883c-44.002 0-80.326 33.471-84.868 76.289-.117.564-.234 1.138-.351 1.711-.178.877-.346 1.723-.483 2.35-12.285 34.133-46.51 52.542-72.688 52.542-40.106 0-55.944-25.097-57.32-46.588-.916-14.313 3.124-27.042 11.378-35.841 7.115-7.584 16.915-11.593 28.343-11.593 25.983 0 31.692 17.107 32.94 24.463 1.748 10.297 11.507 17.227 21.813 15.481 10.297-1.748 17.229-11.514 15.481-21.812-4.382-25.815-25.405-55.959-70.234-55.959-21.829 0-41.692 8.361-55.932 23.541C6.264 41.369-1.386 64.147.207 89.002 2.735 128.494 33.564 171 95.276 171c28.731 0 62.467-13.689 86.029-40.174 15.103 24.098 41.884 40.165 72.361 40.165 47.066 0 85.356-38.29 85.356-85.355 0-47.065-38.29-85.355-85.356-85.355z" mask="url(#b)"/>
        </g>
      </g>
    </symbol>
  </defs>
</svg>
